<svg width="954" height="114" viewBox="0 0 954 114" fill="none" xmlns="http://www.w3.org/2000/svg">
<circle cx="103" cy="79" r="33.5" stroke="#4B5563" stroke-width="3"/>
<circle cx="353" cy="79" r="34.5" stroke="#4B5563"/>
<circle cx="603" cy="79" r="34.5" stroke="#4B5563"/>
<circle cx="853" cy="79" r="34.5" stroke="#4B5563"/>
<line x1="137.999" y1="79" x2="318.001" y2="79" stroke="#4B5563"/>
<line x1="637.999" y1="79" x2="818.001" y2="79" stroke="#4B5563"/>
<line x1="387.999" y1="79" x2="568.001" y2="79" stroke="#4B5563"/>
<path d="M98.702 74.154V70.02H105.904V89H101.276V74.154H98.702Z" fill="#4B5563"/>
<path d="M845.274 85.62V82.032L853.49 70.28H858.456V81.772H860.588V85.62H858.456V89H854.01V85.62H845.274ZM854.322 75.168L849.954 81.772H854.322V75.168Z" fill="#4B5563"/>
<path d="M596.326 75.376C596.395 73.5213 597.002 72.0913 598.146 71.086C599.29 70.0807 600.841 69.578 602.8 69.578C604.1 69.578 605.209 69.8033 606.128 70.254C607.064 70.7047 607.766 71.32 608.234 72.1C608.719 72.88 608.962 73.7553 608.962 74.726C608.962 75.87 608.676 76.806 608.104 77.534C607.532 78.2447 606.865 78.73 606.102 78.99V79.094C607.09 79.4233 607.87 79.9693 608.442 80.732C609.014 81.4947 609.3 82.474 609.3 83.67C609.3 84.7447 609.049 85.698 608.546 86.53C608.061 87.3447 607.341 87.986 606.388 88.454C605.452 88.922 604.334 89.156 603.034 89.156C600.954 89.156 599.29 88.6447 598.042 87.622C596.811 86.5993 596.161 85.0567 596.092 82.994H600.408C600.425 83.7567 600.642 84.3633 601.058 84.814C601.474 85.2473 602.081 85.464 602.878 85.464C603.554 85.464 604.074 85.2733 604.438 84.892C604.819 84.4933 605.01 83.9733 605.01 83.332C605.01 82.5 604.741 81.902 604.204 81.538C603.684 81.1567 602.843 80.966 601.682 80.966H600.85V77.352H601.682C602.566 77.352 603.277 77.2047 603.814 76.91C604.369 76.598 604.646 76.052 604.646 75.272C604.646 74.648 604.473 74.1627 604.126 73.816C603.779 73.4693 603.303 73.296 602.696 73.296C602.037 73.296 601.543 73.4953 601.214 73.894C600.902 74.2927 600.72 74.7867 600.668 75.376H596.326Z" fill="#4B5563"/>
<path d="M347.014 85.438C347.603 84.97 347.872 84.7533 347.82 84.788C349.519 83.384 350.853 82.2313 351.824 81.33C352.812 80.4287 353.644 79.484 354.32 78.496C354.996 77.508 355.334 76.546 355.334 75.61C355.334 74.8993 355.169 74.3447 354.84 73.946C354.511 73.5473 354.017 73.348 353.358 73.348C352.699 73.348 352.179 73.5993 351.798 74.102C351.434 74.5873 351.252 75.2807 351.252 76.182H346.962C346.997 74.7087 347.309 73.478 347.898 72.49C348.505 71.502 349.293 70.774 350.264 70.306C351.252 69.838 352.344 69.604 353.54 69.604C355.603 69.604 357.154 70.1327 358.194 71.19C359.251 72.2473 359.78 73.6253 359.78 75.324C359.78 77.1787 359.147 78.9033 357.882 80.498C356.617 82.0753 355.005 83.618 353.046 85.126H360.066V88.74H347.014V85.438Z" fill="#4B5563"/>
<path d="M3.78 8.1V22H1.5V8.1H3.78ZM12.3334 10.8C13.2001 10.8 13.9734 10.98 14.6534 11.34C15.3468 11.7 15.8868 12.2333 16.2734 12.94C16.6601 13.6467 16.8534 14.5 16.8534 15.5V22H14.5934V15.84C14.5934 14.8533 14.3468 14.1 13.8534 13.58C13.3601 13.0467 12.6868 12.78 11.8334 12.78C10.9801 12.78 10.3001 13.0467 9.79344 13.58C9.3001 14.1 9.05344 14.8533 9.05344 15.84V22H6.77344V10.98H9.05344V12.24C9.42677 11.7867 9.9001 11.4333 10.4734 11.18C11.0601 10.9267 11.6801 10.8 12.3334 10.8ZM24.3817 12.84H22.3417V22H20.0417V12.84H18.7417V10.98H20.0417V10.2C20.0417 8.93333 20.3751 8.01333 21.0417 7.44C21.7217 6.85333 22.7817 6.56 24.2217 6.56V8.46C23.5284 8.46 23.0417 8.59333 22.7617 8.86C22.4817 9.11333 22.3417 9.56 22.3417 10.2V10.98H24.3817V12.84ZM31.1823 22.18C30.1423 22.18 29.2023 21.9467 28.3623 21.48C27.5223 21 26.8623 20.3333 26.3823 19.48C25.9023 18.6133 25.6623 17.6133 25.6623 16.48C25.6623 15.36 25.909 14.3667 26.4023 13.5C26.8957 12.6333 27.569 11.9667 28.4223 11.5C29.2757 11.0333 30.229 10.8 31.2823 10.8C32.3357 10.8 33.289 11.0333 34.1423 11.5C34.9957 11.9667 35.669 12.6333 36.1623 13.5C36.6557 14.3667 36.9023 15.36 36.9023 16.48C36.9023 17.6 36.649 18.5933 36.1423 19.46C35.6357 20.3267 34.9423 21 34.0623 21.48C33.1957 21.9467 32.2357 22.18 31.1823 22.18ZM31.1823 20.2C31.769 20.2 32.3157 20.06 32.8223 19.78C33.3423 19.5 33.7623 19.08 34.0823 18.52C34.4023 17.96 34.5623 17.28 34.5623 16.48C34.5623 15.68 34.409 15.0067 34.1023 14.46C33.7957 13.9 33.389 13.48 32.8823 13.2C32.3757 12.92 31.829 12.78 31.2423 12.78C30.6557 12.78 30.109 12.92 29.6023 13.2C29.109 13.48 28.7157 13.9 28.4223 14.46C28.129 15.0067 27.9823 15.68 27.9823 16.48C27.9823 17.6667 28.2823 18.5867 28.8823 19.24C29.4957 19.88 30.2623 20.2 31.1823 20.2ZM41.4363 12.58C41.7696 12.02 42.2096 11.5867 42.7563 11.28C43.3163 10.96 43.9763 10.8 44.7363 10.8V13.16H44.1563C43.2629 13.16 42.5829 13.3867 42.1163 13.84C41.6629 14.2933 41.4363 15.08 41.4363 16.2V22H39.1563V10.98H41.4363V12.58ZM60.172 10.8C61.0387 10.8 61.812 10.98 62.492 11.34C63.1854 11.7 63.7254 12.2333 64.112 12.94C64.512 13.6467 64.712 14.5 64.712 15.5V22H62.452V15.84C62.452 14.8533 62.2054 14.1 61.712 13.58C61.2187 13.0467 60.5454 12.78 59.692 12.78C58.8387 12.78 58.1587 13.0467 57.652 13.58C57.1587 14.1 56.912 14.8533 56.912 15.84V22H54.652V15.84C54.652 14.8533 54.4054 14.1 53.912 13.58C53.4187 13.0467 52.7454 12.78 51.892 12.78C51.0387 12.78 50.3587 13.0467 49.852 13.58C49.3587 14.1 49.112 14.8533 49.112 15.84V22H46.832V10.98H49.112V12.24C49.4854 11.7867 49.9587 11.4333 50.532 11.18C51.1054 10.9267 51.7187 10.8 52.372 10.8C53.252 10.8 54.0387 10.9867 54.732 11.36C55.4254 11.7333 55.9587 12.2733 56.332 12.98C56.6654 12.3133 57.1854 11.7867 57.892 11.4C58.5987 11 59.3587 10.8 60.172 10.8ZM66.8533 16.44C66.8533 15.3333 67.0799 14.3533 67.5333 13.5C67.9999 12.6467 68.6266 11.9867 69.4133 11.52C70.2133 11.04 71.0933 10.8 72.0533 10.8C72.9199 10.8 73.6733 10.9733 74.3133 11.32C74.9666 11.6533 75.4866 12.0733 75.8733 12.58V10.98H78.1733V22H75.8733V20.36C75.4866 20.88 74.9599 21.3133 74.2933 21.66C73.6266 22.0067 72.8666 22.18 72.0133 22.18C71.0666 22.18 70.1999 21.94 69.4133 21.46C68.6266 20.9667 67.9999 20.2867 67.5333 19.42C67.0799 18.54 66.8533 17.5467 66.8533 16.44ZM75.8733 16.48C75.8733 15.72 75.7133 15.06 75.3933 14.5C75.0866 13.94 74.6799 13.5133 74.1733 13.22C73.6666 12.9267 73.1199 12.78 72.5333 12.78C71.9466 12.78 71.3999 12.9267 70.8933 13.22C70.3866 13.5 69.9733 13.92 69.6533 14.48C69.3466 15.0267 69.1933 15.68 69.1933 16.44C69.1933 17.2 69.3466 17.8667 69.6533 18.44C69.9733 19.0133 70.3866 19.4533 70.8933 19.76C71.4133 20.0533 71.9599 20.2 72.5333 20.2C73.1199 20.2 73.6666 20.0533 74.1733 19.76C74.6799 19.4667 75.0866 19.04 75.3933 18.48C75.7133 17.9067 75.8733 17.24 75.8733 16.48ZM85.808 20.26C87.128 20.26 88.0013 19.68 88.428 18.52H90.888C90.5946 19.5333 90.068 20.3667 89.308 21.02C88.5613 21.66 87.6213 22.0333 86.488 22.14V22.96C87.2613 22.96 87.888 23.14 88.368 23.5C88.848 23.8733 89.088 24.3933 89.088 25.06C89.088 25.7267 88.848 26.2533 88.368 26.64C87.888 27.04 87.2813 27.24 86.548 27.24H83.908V25.8H86.088C86.4613 25.8 86.7413 25.7467 86.928 25.64C87.1146 25.5333 87.208 25.34 87.208 25.06C87.208 24.78 87.1146 24.5867 86.928 24.48C86.7413 24.3733 86.4613 24.32 86.088 24.32H84.988V22.12C84.0813 22.0133 83.2813 21.7133 82.588 21.22C81.8946 20.7133 81.3546 20.06 80.968 19.26C80.5946 18.4467 80.408 17.52 80.408 16.48C80.408 15.3467 80.6346 14.3533 81.088 13.5C81.5546 12.6333 82.1946 11.9667 83.008 11.5C83.8213 11.0333 84.7546 10.8 85.808 10.8C87.1413 10.8 88.2413 11.12 89.108 11.76C89.988 12.3867 90.5813 13.2867 90.888 14.46H88.428C88.228 13.9133 87.908 13.4867 87.468 13.18C87.028 12.8733 86.4746 12.72 85.808 12.72C84.8746 12.72 84.128 13.0533 83.568 13.72C83.0213 14.3733 82.748 15.2933 82.748 16.48C82.748 17.6667 83.0213 18.5933 83.568 19.26C84.128 19.9267 84.8746 20.26 85.808 20.26ZM97.9402 22.18C96.9002 22.18 95.9602 21.9467 95.1202 21.48C94.2802 21 93.6202 20.3333 93.1402 19.48C92.6602 18.6133 92.4202 17.6133 92.4202 16.48C92.4202 15.36 92.6668 14.3667 93.1602 13.5C93.6535 12.6333 94.3268 11.9667 95.1802 11.5C96.0335 11.0333 96.9868 10.8 98.0402 10.8C99.0935 10.8 100.047 11.0333 100.9 11.5C101.753 11.9667 102.427 12.6333 102.92 13.5C103.413 14.3667 103.66 15.36 103.66 16.48C103.66 17.6 103.407 18.5933 102.9 19.46C102.393 20.3267 101.7 21 100.82 21.48C99.9535 21.9467 98.9935 22.18 97.9402 22.18ZM97.9402 20.2C98.5268 20.2 99.0735 20.06 99.5802 19.78C100.1 19.5 100.52 19.08 100.84 18.52C101.16 17.96 101.32 17.28 101.32 16.48C101.32 15.68 101.167 15.0067 100.86 14.46C100.553 13.9 100.147 13.48 99.6402 13.2C99.1335 12.92 98.5868 12.78 98.0002 12.78C97.4135 12.78 96.8668 12.92 96.3602 13.2C95.8668 13.48 95.4735 13.9 95.1802 14.46C94.8868 15.0067 94.7402 15.68 94.7402 16.48C94.7402 17.6667 95.0402 18.5867 95.6402 19.24C96.2535 19.88 97.0202 20.2 97.9402 20.2ZM94.7802 9.66C94.8868 8.88667 95.1402 8.30667 95.5402 7.92C95.9402 7.52 96.4402 7.32 97.0402 7.32C97.2935 7.32 97.5135 7.36 97.7002 7.44C97.8868 7.52 98.1135 7.64 98.3802 7.8C98.5802 7.93333 98.7468 8.03333 98.8802 8.1C99.0268 8.16667 99.1868 8.2 99.3602 8.2C99.5868 8.2 99.7735 8.13333 99.9202 8C100.08 7.85333 100.18 7.64 100.22 7.36H101.5C101.393 8.13333 101.14 8.72 100.74 9.12C100.34 9.50667 99.8402 9.7 99.2402 9.7C98.9868 9.7 98.7602 9.66 98.5602 9.58C98.3602 9.48667 98.1402 9.36 97.9002 9.2C97.6602 9.05333 97.4735 8.95333 97.3402 8.9C97.2202 8.83333 97.0802 8.8 96.9202 8.8C96.6935 8.8 96.5002 8.87333 96.3402 9.02C96.1935 9.16667 96.1002 9.38 96.0602 9.66H94.7802ZM116.014 16.22C116.014 16.6333 115.987 17.0067 115.934 17.34H107.514C107.581 18.22 107.907 18.9267 108.494 19.46C109.081 19.9933 109.801 20.26 110.654 20.26C111.881 20.26 112.747 19.7467 113.254 18.72H115.714C115.381 19.7333 114.774 20.5667 113.894 21.22C113.027 21.86 111.947 22.18 110.654 22.18C109.601 22.18 108.654 21.9467 107.814 21.48C106.987 21 106.334 20.3333 105.854 19.48C105.387 18.6133 105.154 17.6133 105.154 16.48C105.154 15.3467 105.381 14.3533 105.834 13.5C106.301 12.6333 106.947 11.9667 107.774 11.5C108.614 11.0333 109.574 10.8 110.654 10.8C111.694 10.8 112.621 11.0267 113.434 11.48C114.247 11.9333 114.881 12.5733 115.334 13.4C115.787 14.2133 116.014 15.1533 116.014 16.22ZM113.634 15.5C113.621 14.66 113.321 13.9867 112.734 13.48C112.147 12.9733 111.421 12.72 110.554 12.72C109.767 12.72 109.094 12.9733 108.534 13.48C107.974 13.9733 107.641 14.6467 107.534 15.5H113.634ZM122.258 22.18C121.391 22.18 120.611 22.0267 119.918 21.72C119.238 21.4 118.698 20.9733 118.298 20.44C117.898 19.8933 117.684 19.2867 117.658 18.62H120.018C120.058 19.0867 120.278 19.48 120.678 19.8C121.091 20.1067 121.604 20.26 122.218 20.26C122.858 20.26 123.351 20.14 123.698 19.9C124.058 19.6467 124.238 19.3267 124.238 18.94C124.238 18.5267 124.038 18.22 123.638 18.02C123.251 17.82 122.631 17.6 121.778 17.36C120.951 17.1333 120.278 16.9133 119.758 16.7C119.238 16.4867 118.784 16.16 118.398 15.72C118.024 15.28 117.838 14.7 117.838 13.98C117.838 13.3933 118.011 12.86 118.358 12.38C118.704 11.8867 119.198 11.5 119.838 11.22C120.491 10.94 121.238 10.8 122.078 10.8C123.331 10.8 124.338 11.12 125.098 11.76C125.871 12.3867 126.284 13.2467 126.338 14.34H124.058C124.018 13.8467 123.818 13.4533 123.458 13.16C123.098 12.8667 122.611 12.72 121.998 12.72C121.398 12.72 120.938 12.8333 120.618 13.06C120.298 13.2867 120.138 13.5867 120.138 13.96C120.138 14.2533 120.244 14.5 120.458 14.7C120.671 14.9 120.931 15.06 121.238 15.18C121.544 15.2867 121.998 15.4267 122.598 15.6C123.398 15.8133 124.051 16.0333 124.558 16.26C125.078 16.4733 125.524 16.7933 125.898 17.22C126.271 17.6467 126.464 18.2133 126.478 18.92C126.478 19.5467 126.304 20.1067 125.958 20.6C125.611 21.0933 125.118 21.48 124.478 21.76C123.851 22.04 123.111 22.18 122.258 22.18ZM133.377 16.44C133.377 15.3333 133.603 14.3533 134.057 13.5C134.523 12.6467 135.15 11.9867 135.937 11.52C136.737 11.04 137.623 10.8 138.597 10.8C139.317 10.8 140.023 10.96 140.717 11.28C141.423 11.5867 141.983 12 142.397 12.52V7.2H144.697V22H142.397V20.34C142.023 20.8733 141.503 21.3133 140.837 21.66C140.183 22.0067 139.43 22.18 138.577 22.18C137.617 22.18 136.737 21.94 135.937 21.46C135.15 20.9667 134.523 20.2867 134.057 19.42C133.603 18.54 133.377 17.5467 133.377 16.44ZM142.397 16.48C142.397 15.72 142.237 15.06 141.917 14.5C141.61 13.94 141.203 13.5133 140.697 13.22C140.19 12.9267 139.643 12.78 139.057 12.78C138.47 12.78 137.923 12.9267 137.417 13.22C136.91 13.5 136.497 13.92 136.177 14.48C135.87 15.0267 135.717 15.68 135.717 16.44C135.717 17.2 135.87 17.8667 136.177 18.44C136.497 19.0133 136.91 19.4533 137.417 19.76C137.937 20.0533 138.483 20.2 139.057 20.2C139.643 20.2 140.19 20.0533 140.697 19.76C141.203 19.4667 141.61 19.04 141.917 18.48C142.237 17.9067 142.397 17.24 142.397 16.48ZM152.471 22.18C151.431 22.18 150.491 21.9467 149.651 21.48C148.811 21 148.151 20.3333 147.671 19.48C147.191 18.6133 146.951 17.6133 146.951 16.48C146.951 15.36 147.198 14.3667 147.691 13.5C148.185 12.6333 148.858 11.9667 149.711 11.5C150.565 11.0333 151.518 10.8 152.571 10.8C153.625 10.8 154.578 11.0333 155.431 11.5C156.285 11.9667 156.958 12.6333 157.451 13.5C157.945 14.3667 158.191 15.36 158.191 16.48C158.191 17.6 157.938 18.5933 157.431 19.46C156.925 20.3267 156.231 21 155.351 21.48C154.485 21.9467 153.525 22.18 152.471 22.18ZM152.471 20.2C153.058 20.2 153.605 20.06 154.111 19.78C154.631 19.5 155.051 19.08 155.371 18.52C155.691 17.96 155.851 17.28 155.851 16.48C155.851 15.68 155.698 15.0067 155.391 14.46C155.085 13.9 154.678 13.48 154.171 13.2C153.665 12.92 153.118 12.78 152.531 12.78C151.945 12.78 151.398 12.92 150.891 13.2C150.398 13.48 150.005 13.9 149.711 14.46C149.418 15.0067 149.271 15.68 149.271 16.48C149.271 17.6667 149.571 18.5867 150.171 19.24C150.785 19.88 151.551 20.2 152.471 20.2ZM175.361 12.24C175.361 12.9467 175.194 13.6133 174.861 14.24C174.527 14.8667 173.994 15.38 173.261 15.78C172.527 16.1667 171.587 16.36 170.441 16.36H167.921V22H165.641V8.1H170.441C171.507 8.1 172.407 8.28667 173.141 8.66C173.887 9.02 174.441 9.51333 174.801 10.14C175.174 10.7667 175.361 11.4667 175.361 12.24ZM170.441 14.5C171.307 14.5 171.954 14.3067 172.381 13.92C172.807 13.52 173.021 12.96 173.021 12.24C173.021 10.72 172.161 9.96 170.441 9.96H167.921V14.5H170.441ZM187.635 16.22C187.635 16.6333 187.608 17.0067 187.555 17.34H179.135C179.202 18.22 179.528 18.9267 180.115 19.46C180.702 19.9933 181.422 20.26 182.275 20.26C183.502 20.26 184.368 19.7467 184.875 18.72H187.335C187.002 19.7333 186.395 20.5667 185.515 21.22C184.648 21.86 183.568 22.18 182.275 22.18C181.222 22.18 180.275 21.9467 179.435 21.48C178.608 21 177.955 20.3333 177.475 19.48C177.008 18.6133 176.775 17.6133 176.775 16.48C176.775 15.3467 177.002 14.3533 177.455 13.5C177.922 12.6333 178.568 11.9667 179.395 11.5C180.235 11.0333 181.195 10.8 182.275 10.8C183.315 10.8 184.242 11.0267 185.055 11.48C185.868 11.9333 186.502 12.5733 186.955 13.4C187.408 14.2133 187.635 15.1533 187.635 16.22ZM185.255 15.5C185.242 14.66 184.942 13.9867 184.355 13.48C183.768 12.9733 183.042 12.72 182.175 12.72C181.388 12.72 180.715 12.9733 180.155 13.48C179.595 13.9733 179.262 14.6467 179.155 15.5H185.255ZM192.539 12.84V18.94C192.539 19.3533 192.632 19.6533 192.819 19.84C193.019 20.0133 193.352 20.1 193.819 20.1H195.219V22H193.419C192.392 22 191.606 21.76 191.059 21.28C190.512 20.8 190.239 20.02 190.239 18.94V12.84H188.939V10.98H190.239V8.24H192.539V10.98H195.219V12.84H192.539Z" fill="#4B5563"/>
<path d="M761.48 8.1V9.96H757.78V22H755.5V9.96H751.78V8.1H761.48ZM773.889 16.22C773.889 16.6333 773.862 17.0067 773.809 17.34H765.389C765.456 18.22 765.782 18.9267 766.369 19.46C766.956 19.9933 767.676 20.26 768.529 20.26C769.756 20.26 770.622 19.7467 771.129 18.72H773.589C773.256 19.7333 772.649 20.5667 771.769 21.22C770.902 21.86 769.822 22.18 768.529 22.18C767.476 22.18 766.529 21.9467 765.689 21.48C764.862 21 764.209 20.3333 763.729 19.48C763.262 18.6133 763.029 17.6133 763.029 16.48C763.029 15.3467 763.256 14.3533 763.709 13.5C764.176 12.6333 764.822 11.9667 765.649 11.5C766.489 11.0333 767.449 10.8 768.529 10.8C769.569 10.8 770.496 11.0267 771.309 11.48C772.122 11.9333 772.756 12.5733 773.209 13.4C773.662 14.2133 773.889 15.1533 773.889 16.22ZM771.509 15.5C771.496 14.66 771.196 13.9867 770.609 13.48C770.022 12.9733 769.296 12.72 768.429 12.72C767.642 12.72 766.969 12.9733 766.409 13.48C765.849 13.9733 765.516 14.6467 765.409 15.5H771.509ZM778.413 12.58C778.746 12.02 779.186 11.5867 779.733 11.28C780.293 10.96 780.953 10.8 781.713 10.8V13.16H781.133C780.239 13.16 779.559 13.3867 779.093 13.84C778.639 14.2933 778.413 15.08 778.413 16.2V22H776.133V10.98H778.413V12.58ZM797.149 10.8C798.015 10.8 798.789 10.98 799.469 11.34C800.162 11.7 800.702 12.2333 801.089 12.94C801.489 13.6467 801.689 14.5 801.689 15.5V22H799.429V15.84C799.429 14.8533 799.182 14.1 798.689 13.58C798.195 13.0467 797.522 12.78 796.669 12.78C795.815 12.78 795.135 13.0467 794.629 13.58C794.135 14.1 793.889 14.8533 793.889 15.84V22H791.629V15.84C791.629 14.8533 791.382 14.1 790.889 13.58C790.395 13.0467 789.722 12.78 788.869 12.78C788.015 12.78 787.335 13.0467 786.829 13.58C786.335 14.1 786.089 14.8533 786.089 15.84V22H783.809V10.98H786.089V12.24C786.462 11.7867 786.935 11.4333 787.509 11.18C788.082 10.9267 788.695 10.8 789.349 10.8C790.229 10.8 791.015 10.9867 791.709 11.36C792.402 11.7333 792.935 12.2733 793.309 12.98C793.642 12.3133 794.162 11.7867 794.869 11.4C795.575 11 796.335 10.8 797.149 10.8ZM809.37 22.18C808.33 22.18 807.39 21.9467 806.55 21.48C805.71 21 805.05 20.3333 804.57 19.48C804.09 18.6133 803.85 17.6133 803.85 16.48C803.85 15.36 804.097 14.3667 804.59 13.5C805.083 12.6333 805.757 11.9667 806.61 11.5C807.463 11.0333 808.417 10.8 809.47 10.8C810.523 10.8 811.477 11.0333 812.33 11.5C813.183 11.9667 813.857 12.6333 814.35 13.5C814.843 14.3667 815.09 15.36 815.09 16.48C815.09 17.6 814.837 18.5933 814.33 19.46C813.823 20.3267 813.13 21 812.25 21.48C811.383 21.9467 810.423 22.18 809.37 22.18ZM809.37 20.2C809.957 20.2 810.503 20.06 811.01 19.78C811.53 19.5 811.95 19.08 812.27 18.52C812.59 17.96 812.75 17.28 812.75 16.48C812.75 15.68 812.597 15.0067 812.29 14.46C811.983 13.9 811.577 13.48 811.07 13.2C810.563 12.92 810.017 12.78 809.43 12.78C808.843 12.78 808.297 12.92 807.79 13.2C807.297 13.48 806.903 13.9 806.61 14.46C806.317 15.0067 806.17 15.68 806.17 16.48C806.17 17.6667 806.47 18.5867 807.07 19.24C807.683 19.88 808.45 20.2 809.37 20.2ZM821.344 22.18C820.477 22.18 819.697 22.0267 819.004 21.72C818.324 21.4 817.784 20.9733 817.384 20.44C816.984 19.8933 816.77 19.2867 816.744 18.62H819.104C819.144 19.0867 819.364 19.48 819.764 19.8C820.177 20.1067 820.69 20.26 821.304 20.26C821.944 20.26 822.437 20.14 822.784 19.9C823.144 19.6467 823.324 19.3267 823.324 18.94C823.324 18.5267 823.124 18.22 822.724 18.02C822.337 17.82 821.717 17.6 820.864 17.36C820.037 17.1333 819.364 16.9133 818.844 16.7C818.324 16.4867 817.87 16.16 817.484 15.72C817.11 15.28 816.924 14.7 816.924 13.98C816.924 13.3933 817.097 12.86 817.444 12.38C817.79 11.8867 818.284 11.5 818.924 11.22C819.577 10.94 820.324 10.8 821.164 10.8C822.417 10.8 823.424 11.12 824.184 11.76C824.957 12.3867 825.37 13.2467 825.424 14.34H823.144C823.104 13.8467 822.904 13.4533 822.544 13.16C822.184 12.8667 821.697 12.72 821.084 12.72C820.484 12.72 820.024 12.8333 819.704 13.06C819.384 13.2867 819.224 13.5867 819.224 13.96C819.224 14.2533 819.33 14.5 819.544 14.7C819.757 14.9 820.017 15.06 820.324 15.18C820.63 15.2867 821.084 15.4267 821.684 15.6C822.484 15.8133 823.137 16.0333 823.644 16.26C824.164 16.4733 824.61 16.7933 824.984 17.22C825.357 17.6467 825.55 18.2133 825.564 18.92C825.564 19.5467 825.39 20.1067 825.044 20.6C824.697 21.0933 824.204 21.48 823.564 21.76C822.937 22.04 822.197 22.18 821.344 22.18ZM843.323 16.22C843.323 16.6333 843.296 17.0067 843.243 17.34H834.823C834.889 18.22 835.216 18.9267 835.803 19.46C836.389 19.9933 837.109 20.26 837.963 20.26C839.189 20.26 840.056 19.7467 840.563 18.72H843.023C842.689 19.7333 842.083 20.5667 841.203 21.22C840.336 21.86 839.256 22.18 837.963 22.18C836.909 22.18 835.963 21.9467 835.123 21.48C834.296 21 833.643 20.3333 833.163 19.48C832.696 18.6133 832.463 17.6133 832.463 16.48C832.463 15.3467 832.689 14.3533 833.143 13.5C833.609 12.6333 834.256 11.9667 835.083 11.5C835.923 11.0333 836.883 10.8 837.963 10.8C839.003 10.8 839.929 11.0267 840.743 11.48C841.556 11.9333 842.189 12.5733 842.643 13.4C843.096 14.2133 843.323 15.1533 843.323 16.22ZM840.943 15.5C840.929 14.66 840.629 13.9867 840.043 13.48C839.456 12.9733 838.729 12.72 837.863 12.72C837.076 12.72 836.403 12.9733 835.843 13.48C835.283 13.9733 834.949 14.6467 834.843 15.5H840.943ZM850.002 16.48C850.002 15.3467 850.228 14.3533 850.682 13.5C851.148 12.6333 851.788 11.9667 852.602 11.5C853.415 11.0333 854.348 10.8 855.402 10.8C856.735 10.8 857.835 11.12 858.702 11.76C859.582 12.3867 860.175 13.2867 860.482 14.46H858.022C857.822 13.9133 857.502 13.4867 857.062 13.18C856.622 12.8733 856.068 12.72 855.402 12.72C854.468 12.72 853.722 13.0533 853.162 13.72C852.615 14.3733 852.342 15.2933 852.342 16.48C852.342 17.6667 852.615 18.5933 853.162 19.26C853.722 19.9267 854.468 20.26 855.402 20.26C856.722 20.26 857.595 19.68 858.022 18.52H860.482C860.162 19.64 859.562 20.5333 858.682 21.2C857.802 21.8533 856.708 22.18 855.402 22.18C854.348 22.18 853.415 21.9467 852.602 21.48C851.788 21 851.148 20.3333 850.682 19.48C850.228 18.6133 850.002 17.6133 850.002 16.48ZM867.534 22.18C866.494 22.18 865.554 21.9467 864.714 21.48C863.874 21 863.214 20.3333 862.734 19.48C862.254 18.6133 862.014 17.6133 862.014 16.48C862.014 15.36 862.261 14.3667 862.754 13.5C863.247 12.6333 863.921 11.9667 864.774 11.5C865.627 11.0333 866.581 10.8 867.634 10.8C868.687 10.8 869.641 11.0333 870.494 11.5C871.347 11.9667 872.021 12.6333 872.514 13.5C873.007 14.3667 873.254 15.36 873.254 16.48C873.254 17.6 873.001 18.5933 872.494 19.46C871.987 20.3267 871.294 21 870.414 21.48C869.547 21.9467 868.587 22.18 867.534 22.18ZM867.534 20.2C868.121 20.2 868.667 20.06 869.174 19.78C869.694 19.5 870.114 19.08 870.434 18.52C870.754 17.96 870.914 17.28 870.914 16.48C870.914 15.68 870.761 15.0067 870.454 14.46C870.147 13.9 869.741 13.48 869.234 13.2C868.727 12.92 868.181 12.78 867.594 12.78C867.007 12.78 866.461 12.92 865.954 13.2C865.461 13.48 865.067 13.9 864.774 14.46C864.481 15.0067 864.334 15.68 864.334 16.48C864.334 17.6667 864.634 18.5867 865.234 19.24C865.847 19.88 866.614 20.2 867.534 20.2ZM881.068 10.8C881.934 10.8 882.708 10.98 883.388 11.34C884.081 11.7 884.621 12.2333 885.008 12.94C885.394 13.6467 885.588 14.5 885.588 15.5V22H883.328V15.84C883.328 14.8533 883.081 14.1 882.588 13.58C882.094 13.0467 881.421 12.78 880.568 12.78C879.714 12.78 879.034 13.0467 878.528 13.58C878.034 14.1 877.788 14.8533 877.788 15.84V22H875.508V10.98H877.788V12.24C878.161 11.7867 878.634 11.4333 879.208 11.18C879.794 10.9267 880.414 10.8 881.068 10.8ZM887.736 16.44C887.736 15.3333 887.963 14.3533 888.416 13.5C888.883 12.6467 889.509 11.9867 890.296 11.52C891.096 11.04 891.983 10.8 892.956 10.8C893.676 10.8 894.383 10.96 895.076 11.28C895.783 11.5867 896.343 12 896.756 12.52V7.2H899.056V22H896.756V20.34C896.383 20.8733 895.863 21.3133 895.196 21.66C894.543 22.0067 893.789 22.18 892.936 22.18C891.976 22.18 891.096 21.94 890.296 21.46C889.509 20.9667 888.883 20.2867 888.416 19.42C887.963 18.54 887.736 17.5467 887.736 16.44ZM896.756 16.48C896.756 15.72 896.596 15.06 896.276 14.5C895.969 13.94 895.563 13.5133 895.056 13.22C894.549 12.9267 894.003 12.78 893.416 12.78C892.829 12.78 892.283 12.9267 891.776 13.22C891.269 13.5 890.856 13.92 890.536 14.48C890.229 15.0267 890.076 15.68 890.076 16.44C890.076 17.2 890.229 17.8667 890.536 18.44C890.856 19.0133 891.269 19.4533 891.776 19.76C892.296 20.0533 892.843 20.2 893.416 20.2C894.003 20.2 894.549 20.0533 895.056 19.76C895.563 19.4667 895.969 19.04 896.276 18.48C896.596 17.9067 896.756 17.24 896.756 16.48ZM903.211 9.52C902.797 9.52 902.451 9.38 902.171 9.1C901.891 8.82 901.751 8.47333 901.751 8.06C901.751 7.64667 901.891 7.3 902.171 7.02C902.451 6.74 902.797 6.6 903.211 6.6C903.611 6.6 903.951 6.74 904.231 7.02C904.511 7.3 904.651 7.64667 904.651 8.06C904.651 8.47333 904.511 8.82 904.231 9.1C903.951 9.38 903.611 9.52 903.211 9.52ZM904.331 10.98V22H902.051V10.98H904.331ZM911.964 20.26C913.284 20.26 914.158 19.68 914.584 18.52H917.044C916.751 19.5333 916.224 20.3667 915.464 21.02C914.718 21.66 913.778 22.0333 912.644 22.14V22.96C913.418 22.96 914.044 23.14 914.524 23.5C915.004 23.8733 915.244 24.3933 915.244 25.06C915.244 25.7267 915.004 26.2533 914.524 26.64C914.044 27.04 913.438 27.24 912.704 27.24H910.064V25.8H912.244C912.618 25.8 912.898 25.7467 913.084 25.64C913.271 25.5333 913.364 25.34 913.364 25.06C913.364 24.78 913.271 24.5867 913.084 24.48C912.898 24.3733 912.618 24.32 912.244 24.32H911.144V22.12C910.238 22.0133 909.438 21.7133 908.744 21.22C908.051 20.7133 907.511 20.06 907.124 19.26C906.751 18.4467 906.564 17.52 906.564 16.48C906.564 15.3467 906.791 14.3533 907.244 13.5C907.711 12.6333 908.351 11.9667 909.164 11.5C909.978 11.0333 910.911 10.8 911.964 10.8C913.298 10.8 914.398 11.12 915.264 11.76C916.144 12.3867 916.738 13.2867 917.044 14.46H914.584C914.384 13.9133 914.064 13.4867 913.624 13.18C913.184 12.8733 912.631 12.72 911.964 12.72C911.031 12.72 910.284 13.0533 909.724 13.72C909.178 14.3733 908.904 15.2933 908.904 16.48C908.904 17.6667 909.178 18.5933 909.724 19.26C910.284 19.9267 911.031 20.26 911.964 20.26ZM924.096 22.18C923.056 22.18 922.116 21.9467 921.276 21.48C920.436 21 919.776 20.3333 919.296 19.48C918.816 18.6133 918.576 17.6133 918.576 16.48C918.576 15.36 918.823 14.3667 919.316 13.5C919.81 12.6333 920.483 11.9667 921.336 11.5C922.19 11.0333 923.143 10.8 924.196 10.8C925.25 10.8 926.203 11.0333 927.056 11.5C927.91 11.9667 928.583 12.6333 929.076 13.5C929.57 14.3667 929.816 15.36 929.816 16.48C929.816 17.6 929.563 18.5933 929.056 19.46C928.55 20.3267 927.856 21 926.976 21.48C926.11 21.9467 925.15 22.18 924.096 22.18ZM924.096 20.2C924.683 20.2 925.23 20.06 925.736 19.78C926.256 19.5 926.676 19.08 926.996 18.52C927.316 17.96 927.476 17.28 927.476 16.48C927.476 15.68 927.323 15.0067 927.016 14.46C926.71 13.9 926.303 13.48 925.796 13.2C925.29 12.92 924.743 12.78 924.156 12.78C923.57 12.78 923.023 12.92 922.516 13.2C922.023 13.48 921.63 13.9 921.336 14.46C921.043 15.0067 920.896 15.68 920.896 16.48C920.896 17.6667 921.196 18.5867 921.796 19.24C922.41 19.88 923.176 20.2 924.096 20.2ZM920.936 9.66C921.043 8.88667 921.296 8.30667 921.696 7.92C922.096 7.52 922.596 7.32 923.196 7.32C923.45 7.32 923.67 7.36 923.856 7.44C924.043 7.52 924.27 7.64 924.536 7.8C924.736 7.93333 924.903 8.03333 925.036 8.1C925.183 8.16667 925.343 8.2 925.516 8.2C925.743 8.2 925.93 8.13333 926.076 8C926.236 7.85333 926.336 7.64 926.376 7.36H927.656C927.55 8.13333 927.296 8.72 926.896 9.12C926.496 9.50667 925.996 9.7 925.396 9.7C925.143 9.7 924.916 9.66 924.716 9.58C924.516 9.48667 924.296 9.36 924.056 9.2C923.816 9.05333 923.63 8.95333 923.496 8.9C923.376 8.83333 923.236 8.8 923.076 8.8C922.85 8.8 922.656 8.87333 922.496 9.02C922.35 9.16667 922.256 9.38 922.216 9.66H920.936ZM942.17 16.22C942.17 16.6333 942.144 17.0067 942.09 17.34H933.67C933.737 18.22 934.064 18.9267 934.65 19.46C935.237 19.9933 935.957 20.26 936.81 20.26C938.037 20.26 938.904 19.7467 939.41 18.72H941.87C941.537 19.7333 940.93 20.5667 940.05 21.22C939.184 21.86 938.104 22.18 936.81 22.18C935.757 22.18 934.81 21.9467 933.97 21.48C933.144 21 932.49 20.3333 932.01 19.48C931.544 18.6133 931.31 17.6133 931.31 16.48C931.31 15.3467 931.537 14.3533 931.99 13.5C932.457 12.6333 933.104 11.9667 933.93 11.5C934.77 11.0333 935.73 10.8 936.81 10.8C937.85 10.8 938.777 11.0267 939.59 11.48C940.404 11.9333 941.037 12.5733 941.49 13.4C941.944 14.2133 942.17 15.1533 942.17 16.22ZM939.79 15.5C939.777 14.66 939.477 13.9867 938.89 13.48C938.304 12.9733 937.577 12.72 936.71 12.72C935.924 12.72 935.25 12.9733 934.69 13.48C934.13 13.9733 933.797 14.6467 933.69 15.5H939.79ZM948.414 22.18C947.547 22.18 946.767 22.0267 946.074 21.72C945.394 21.4 944.854 20.9733 944.454 20.44C944.054 19.8933 943.841 19.2867 943.814 18.62H946.174C946.214 19.0867 946.434 19.48 946.834 19.8C947.247 20.1067 947.761 20.26 948.374 20.26C949.014 20.26 949.507 20.14 949.854 19.9C950.214 19.6467 950.394 19.3267 950.394 18.94C950.394 18.5267 950.194 18.22 949.794 18.02C949.407 17.82 948.787 17.6 947.934 17.36C947.107 17.1333 946.434 16.9133 945.914 16.7C945.394 16.4867 944.941 16.16 944.554 15.72C944.181 15.28 943.994 14.7 943.994 13.98C943.994 13.3933 944.167 12.86 944.514 12.38C944.861 11.8867 945.354 11.5 945.994 11.22C946.647 10.94 947.394 10.8 948.234 10.8C949.487 10.8 950.494 11.12 951.254 11.76C952.027 12.3867 952.441 13.2467 952.494 14.34H950.214C950.174 13.8467 949.974 13.4533 949.614 13.16C949.254 12.8667 948.767 12.72 948.154 12.72C947.554 12.72 947.094 12.8333 946.774 13.06C946.454 13.2867 946.294 13.5867 946.294 13.96C946.294 14.2533 946.401 14.5 946.614 14.7C946.827 14.9 947.087 15.06 947.394 15.18C947.701 15.2867 948.154 15.4267 948.754 15.6C949.554 15.8133 950.207 16.0333 950.714 16.26C951.234 16.4733 951.681 16.7933 952.054 17.22C952.427 17.6467 952.621 18.2133 952.634 18.92C952.634 19.5467 952.461 20.1067 952.114 20.6C951.767 21.0933 951.274 21.48 950.634 21.76C950.007 22.04 949.267 22.18 948.414 22.18Z" fill="#4B5563"/>
<path d="M555.74 15.02C555.74 13.66 556.053 12.44 556.68 11.36C557.32 10.28 558.18 9.44 559.26 8.84C560.353 8.22667 561.547 7.92 562.84 7.92C564.32 7.92 565.633 8.28667 566.78 9.02C567.94 9.74 568.78 10.7667 569.3 12.1H566.56C566.2 11.3667 565.7 10.82 565.06 10.46C564.42 10.1 563.68 9.92 562.84 9.92C561.92 9.92 561.1 10.1267 560.38 10.54C559.66 10.9533 559.093 11.5467 558.68 12.32C558.28 13.0933 558.08 13.9933 558.08 15.02C558.08 16.0467 558.28 16.9467 558.68 17.72C559.093 18.4933 559.66 19.0933 560.38 19.52C561.1 19.9333 561.92 20.14 562.84 20.14C563.68 20.14 564.42 19.96 565.06 19.6C565.7 19.24 566.2 18.6933 566.56 17.96H569.3C568.78 19.2933 567.94 20.32 566.78 21.04C565.633 21.76 564.32 22.12 562.84 22.12C561.533 22.12 560.34 21.82 559.26 21.22C558.18 20.6067 557.32 19.76 556.68 18.68C556.053 17.6 555.74 16.38 555.74 15.02ZM576.749 22.18C575.709 22.18 574.769 21.9467 573.929 21.48C573.089 21 572.429 20.3333 571.949 19.48C571.469 18.6133 571.229 17.6133 571.229 16.48C571.229 15.36 571.475 14.3667 571.969 13.5C572.462 12.6333 573.135 11.9667 573.989 11.5C574.842 11.0333 575.795 10.8 576.849 10.8C577.902 10.8 578.855 11.0333 579.709 11.5C580.562 11.9667 581.235 12.6333 581.729 13.5C582.222 14.3667 582.469 15.36 582.469 16.48C582.469 17.6 582.215 18.5933 581.709 19.46C581.202 20.3267 580.509 21 579.629 21.48C578.762 21.9467 577.802 22.18 576.749 22.18ZM576.749 20.2C577.335 20.2 577.882 20.06 578.389 19.78C578.909 19.5 579.329 19.08 579.649 18.52C579.969 17.96 580.129 17.28 580.129 16.48C580.129 15.68 579.975 15.0067 579.669 14.46C579.362 13.9 578.955 13.48 578.449 13.2C577.942 12.92 577.395 12.78 576.809 12.78C576.222 12.78 575.675 12.92 575.169 13.2C574.675 13.48 574.282 13.9 573.989 14.46C573.695 15.0067 573.549 15.68 573.549 16.48C573.549 17.6667 573.849 18.5867 574.449 19.24C575.062 19.88 575.829 20.2 576.749 20.2ZM590.283 10.8C591.149 10.8 591.923 10.98 592.603 11.34C593.296 11.7 593.836 12.2333 594.223 12.94C594.609 13.6467 594.803 14.5 594.803 15.5V22H592.543V15.84C592.543 14.8533 592.296 14.1 591.803 13.58C591.309 13.0467 590.636 12.78 589.783 12.78C588.929 12.78 588.249 13.0467 587.743 13.58C587.249 14.1 587.003 14.8533 587.003 15.84V22H584.723V10.98H587.003V12.24C587.376 11.7867 587.849 11.4333 588.423 11.18C589.009 10.9267 589.629 10.8 590.283 10.8ZM600.371 12.84V18.94C600.371 19.3533 600.464 19.6533 600.651 19.84C600.851 20.0133 601.184 20.1 601.651 20.1H603.051V22H601.251C600.224 22 599.438 21.76 598.891 21.28C598.344 20.8 598.071 20.02 598.071 18.94V12.84H596.771V10.98H598.071V8.24H600.371V10.98H603.051V12.84H600.371ZM604.392 16.44C604.392 15.3333 604.619 14.3533 605.072 13.5C605.539 12.6467 606.166 11.9867 606.952 11.52C607.752 11.04 608.632 10.8 609.592 10.8C610.459 10.8 611.212 10.9733 611.852 11.32C612.506 11.6533 613.026 12.0733 613.412 12.58V10.98H615.712V22H613.412V20.36C613.026 20.88 612.499 21.3133 611.832 21.66C611.166 22.0067 610.406 22.18 609.552 22.18C608.606 22.18 607.739 21.94 606.952 21.46C606.166 20.9667 605.539 20.2867 605.072 19.42C604.619 18.54 604.392 17.5467 604.392 16.44ZM613.412 16.48C613.412 15.72 613.252 15.06 612.932 14.5C612.626 13.94 612.219 13.5133 611.712 13.22C611.206 12.9267 610.659 12.78 610.072 12.78C609.486 12.78 608.939 12.9267 608.432 13.22C607.926 13.5 607.512 13.92 607.192 14.48C606.886 15.0267 606.732 15.68 606.732 16.44C606.732 17.2 606.886 17.8667 607.192 18.44C607.512 19.0133 607.926 19.4533 608.432 19.76C608.952 20.0533 609.499 20.2 610.072 20.2C610.659 20.2 611.206 20.0533 611.712 19.76C612.219 19.4667 612.626 19.04 612.932 18.48C613.252 17.9067 613.412 17.24 613.412 16.48ZM621.367 12.84V18.94C621.367 19.3533 621.46 19.6533 621.647 19.84C621.847 20.0133 622.18 20.1 622.647 20.1H624.047V22H622.247C621.22 22 620.434 21.76 619.887 21.28C619.34 20.8 619.067 20.02 619.067 18.94V12.84H617.767V10.98H619.067V8.24H621.367V10.98H624.047V12.84H621.367ZM630.928 22.18C629.888 22.18 628.948 21.9467 628.108 21.48C627.268 21 626.608 20.3333 626.128 19.48C625.648 18.6133 625.408 17.6133 625.408 16.48C625.408 15.36 625.655 14.3667 626.148 13.5C626.642 12.6333 627.315 11.9667 628.168 11.5C629.022 11.0333 629.975 10.8 631.028 10.8C632.082 10.8 633.035 11.0333 633.888 11.5C634.742 11.9667 635.415 12.6333 635.908 13.5C636.402 14.3667 636.648 15.36 636.648 16.48C636.648 17.6 636.395 18.5933 635.888 19.46C635.382 20.3267 634.688 21 633.808 21.48C632.942 21.9467 631.982 22.18 630.928 22.18ZM630.928 20.2C631.515 20.2 632.062 20.06 632.568 19.78C633.088 19.5 633.508 19.08 633.828 18.52C634.148 17.96 634.308 17.28 634.308 16.48C634.308 15.68 634.155 15.0067 633.848 14.46C633.542 13.9 633.135 13.48 632.628 13.2C632.122 12.92 631.575 12.78 630.988 12.78C630.402 12.78 629.855 12.92 629.348 13.2C628.855 13.48 628.462 13.9 628.168 14.46C627.875 15.0067 627.728 15.68 627.728 16.48C627.728 17.6667 628.028 18.5867 628.628 19.24C629.242 19.88 630.008 20.2 630.928 20.2Z" fill="#4B5563"/>
<path d="M255.04 8.1C256.52 8.1 257.813 8.38667 258.92 8.96C260.04 9.52 260.9 10.3333 261.5 11.4C262.113 12.4533 262.42 13.6867 262.42 15.1C262.42 16.5133 262.113 17.74 261.5 18.78C260.9 19.82 260.04 20.62 258.92 21.18C257.813 21.7267 256.52 22 255.04 22H250.5V8.1H255.04ZM255.04 20.14C256.667 20.14 257.913 19.7 258.78 18.82C259.647 17.94 260.08 16.7 260.08 15.1C260.08 13.4867 259.647 12.2267 258.78 11.32C257.913 10.4133 256.667 9.96 255.04 9.96H252.78V20.14H255.04ZM274.78 16.22C274.78 16.6333 274.753 17.0067 274.7 17.34H266.28C266.346 18.22 266.673 18.9267 267.26 19.46C267.846 19.9933 268.566 20.26 269.42 20.26C270.646 20.26 271.513 19.7467 272.02 18.72H274.48C274.146 19.7333 273.54 20.5667 272.66 21.22C271.793 21.86 270.713 22.18 269.42 22.18C268.366 22.18 267.42 21.9467 266.58 21.48C265.753 21 265.1 20.3333 264.62 19.48C264.153 18.6133 263.92 17.6133 263.92 16.48C263.92 15.3467 264.146 14.3533 264.6 13.5C265.066 12.6333 265.713 11.9667 266.54 11.5C267.38 11.0333 268.34 10.8 269.42 10.8C270.46 10.8 271.386 11.0267 272.2 11.48C273.013 11.9333 273.646 12.5733 274.1 13.4C274.553 14.2133 274.78 15.1533 274.78 16.22ZM272.4 15.5C272.386 14.66 272.086 13.9867 271.5 13.48C270.913 12.9733 270.186 12.72 269.32 12.72C268.533 12.72 267.86 12.9733 267.3 13.48C266.74 13.9733 266.406 14.6467 266.3 15.5H272.4ZM281.023 22.18C280.157 22.18 279.377 22.0267 278.683 21.72C278.003 21.4 277.463 20.9733 277.063 20.44C276.663 19.8933 276.45 19.2867 276.423 18.62H278.783C278.823 19.0867 279.043 19.48 279.443 19.8C279.857 20.1067 280.37 20.26 280.983 20.26C281.623 20.26 282.117 20.14 282.463 19.9C282.823 19.6467 283.003 19.3267 283.003 18.94C283.003 18.5267 282.803 18.22 282.403 18.02C282.017 17.82 281.397 17.6 280.543 17.36C279.717 17.1333 279.043 16.9133 278.523 16.7C278.003 16.4867 277.55 16.16 277.163 15.72C276.79 15.28 276.603 14.7 276.603 13.98C276.603 13.3933 276.777 12.86 277.123 12.38C277.47 11.8867 277.963 11.5 278.603 11.22C279.257 10.94 280.003 10.8 280.843 10.8C282.097 10.8 283.103 11.12 283.863 11.76C284.637 12.3867 285.05 13.2467 285.103 14.34H282.823C282.783 13.8467 282.583 13.4533 282.223 13.16C281.863 12.8667 281.377 12.72 280.763 12.72C280.163 12.72 279.703 12.8333 279.383 13.06C279.063 13.2867 278.903 13.5867 278.903 13.96C278.903 14.2533 279.01 14.5 279.223 14.7C279.437 14.9 279.697 15.06 280.003 15.18C280.31 15.2867 280.763 15.4267 281.363 15.6C282.163 15.8133 282.817 16.0333 283.323 16.26C283.843 16.4733 284.29 16.7933 284.663 17.22C285.037 17.6467 285.23 18.2133 285.243 18.92C285.243 19.5467 285.07 20.1067 284.723 20.6C284.377 21.0933 283.883 21.48 283.243 21.76C282.617 22.04 281.877 22.18 281.023 22.18ZM286.947 16.48C286.947 15.3467 287.174 14.3533 287.627 13.5C288.094 12.6333 288.734 11.9667 289.547 11.5C290.36 11.0333 291.294 10.8 292.347 10.8C293.68 10.8 294.78 11.12 295.647 11.76C296.527 12.3867 297.12 13.2867 297.427 14.46H294.967C294.767 13.9133 294.447 13.4867 294.007 13.18C293.567 12.8733 293.014 12.72 292.347 12.72C291.414 12.72 290.667 13.0533 290.107 13.72C289.56 14.3733 289.287 15.2933 289.287 16.48C289.287 17.6667 289.56 18.5933 290.107 19.26C290.667 19.9267 291.414 20.26 292.347 20.26C293.667 20.26 294.54 19.68 294.967 18.52H297.427C297.107 19.64 296.507 20.5333 295.627 21.2C294.747 21.8533 293.654 22.18 292.347 22.18C291.294 22.18 290.36 21.9467 289.547 21.48C288.734 21 288.094 20.3333 287.627 19.48C287.174 18.6133 286.947 17.6133 286.947 16.48ZM301.979 12.58C302.313 12.02 302.753 11.5867 303.299 11.28C303.859 10.96 304.519 10.8 305.279 10.8V13.16H304.699C303.806 13.16 303.126 13.3867 302.659 13.84C302.206 14.2933 301.979 15.08 301.979 16.2V22H299.699V10.98H301.979V12.58ZM308.535 9.52C308.122 9.52 307.775 9.38 307.495 9.1C307.215 8.82 307.075 8.47333 307.075 8.06C307.075 7.64667 307.215 7.3 307.495 7.02C307.775 6.74 308.122 6.6 308.535 6.6C308.935 6.6 309.275 6.74 309.555 7.02C309.835 7.3 309.975 7.64667 309.975 8.06C309.975 8.47333 309.835 8.82 309.555 9.1C309.275 9.38 308.935 9.52 308.535 9.52ZM309.655 10.98V22H307.375V10.98H309.655ZM317.288 20.26C318.608 20.26 319.482 19.68 319.908 18.52H322.368C322.075 19.5333 321.548 20.3667 320.788 21.02C320.042 21.66 319.102 22.0333 317.968 22.14V22.96C318.742 22.96 319.368 23.14 319.848 23.5C320.328 23.8733 320.568 24.3933 320.568 25.06C320.568 25.7267 320.328 26.2533 319.848 26.64C319.368 27.04 318.762 27.24 318.028 27.24H315.388V25.8H317.568C317.942 25.8 318.222 25.7467 318.408 25.64C318.595 25.5333 318.688 25.34 318.688 25.06C318.688 24.78 318.595 24.5867 318.408 24.48C318.222 24.3733 317.942 24.32 317.568 24.32H316.468V22.12C315.562 22.0133 314.762 21.7133 314.068 21.22C313.375 20.7133 312.835 20.06 312.448 19.26C312.075 18.4467 311.888 17.52 311.888 16.48C311.888 15.3467 312.115 14.3533 312.568 13.5C313.035 12.6333 313.675 11.9667 314.488 11.5C315.302 11.0333 316.235 10.8 317.288 10.8C318.622 10.8 319.722 11.12 320.588 11.76C321.468 12.3867 322.062 13.2867 322.368 14.46H319.908C319.708 13.9133 319.388 13.4867 318.948 13.18C318.508 12.8733 317.955 12.72 317.288 12.72C316.355 12.72 315.608 13.0533 315.048 13.72C314.502 14.3733 314.228 15.2933 314.228 16.48C314.228 17.6667 314.502 18.5933 315.048 19.26C315.608 19.9267 316.355 20.26 317.288 20.26ZM323.881 16.44C323.881 15.3333 324.107 14.3533 324.561 13.5C325.027 12.6467 325.654 11.9867 326.441 11.52C327.241 11.04 328.121 10.8 329.081 10.8C329.947 10.8 330.701 10.9733 331.341 11.32C331.994 11.6533 332.514 12.0733 332.901 12.58V10.98H335.201V22H332.901V20.36C332.514 20.88 331.987 21.3133 331.321 21.66C330.654 22.0067 329.894 22.18 329.041 22.18C328.094 22.18 327.227 21.94 326.441 21.46C325.654 20.9667 325.027 20.2867 324.561 19.42C324.107 18.54 323.881 17.5467 323.881 16.44ZM332.901 16.48C332.901 15.72 332.741 15.06 332.421 14.5C332.114 13.94 331.707 13.5133 331.201 13.22C330.694 12.9267 330.147 12.78 329.561 12.78C328.974 12.78 328.427 12.9267 327.921 13.22C327.414 13.5 327.001 13.92 326.681 14.48C326.374 15.0267 326.221 15.68 326.221 16.44C326.221 17.2 326.374 17.8667 326.681 18.44C327.001 19.0133 327.414 19.4533 327.921 19.76C328.441 20.0533 328.987 20.2 329.561 20.2C330.147 20.2 330.694 20.0533 331.201 19.76C331.707 19.4667 332.114 19.04 332.421 18.48C332.741 17.9067 332.901 17.24 332.901 16.48ZM326.661 9.84C326.767 9.06667 327.021 8.48667 327.421 8.1C327.821 7.7 328.321 7.5 328.921 7.5C329.174 7.5 329.394 7.54 329.581 7.62C329.767 7.7 329.994 7.82 330.261 7.98C330.461 8.11333 330.627 8.21333 330.761 8.28C330.907 8.34667 331.067 8.38 331.241 8.38C331.467 8.38 331.654 8.31333 331.801 8.18C331.961 8.03333 332.061 7.82 332.101 7.54H333.381C333.274 8.31333 333.021 8.9 332.621 9.3C332.221 9.68667 331.721 9.88 331.121 9.88C330.867 9.88 330.641 9.84 330.441 9.76C330.241 9.66667 330.021 9.54 329.781 9.38C329.541 9.23333 329.354 9.13333 329.221 9.08C329.101 9.01333 328.961 8.98 328.801 8.98C328.574 8.98 328.381 9.05333 328.221 9.2C328.074 9.34667 327.981 9.56 327.941 9.84H326.661ZM342.975 22.18C341.935 22.18 340.995 21.9467 340.155 21.48C339.315 21 338.655 20.3333 338.175 19.48C337.695 18.6133 337.455 17.6133 337.455 16.48C337.455 15.36 337.702 14.3667 338.195 13.5C338.689 12.6333 339.362 11.9667 340.215 11.5C341.069 11.0333 342.022 10.8 343.075 10.8C344.129 10.8 345.082 11.0333 345.935 11.5C346.789 11.9667 347.462 12.6333 347.955 13.5C348.449 14.3667 348.695 15.36 348.695 16.48C348.695 17.6 348.442 18.5933 347.935 19.46C347.429 20.3267 346.735 21 345.855 21.48C344.989 21.9467 344.029 22.18 342.975 22.18ZM342.975 20.2C343.562 20.2 344.109 20.06 344.615 19.78C345.135 19.5 345.555 19.08 345.875 18.52C346.195 17.96 346.355 17.28 346.355 16.48C346.355 15.68 346.202 15.0067 345.895 14.46C345.589 13.9 345.182 13.48 344.675 13.2C344.169 12.92 343.622 12.78 343.035 12.78C342.449 12.78 341.902 12.92 341.395 13.2C340.902 13.48 340.509 13.9 340.215 14.46C339.922 15.0067 339.775 15.68 339.775 16.48C339.775 17.6667 340.075 18.5867 340.675 19.24C341.289 19.88 342.055 20.2 342.975 20.2ZM355.385 16.44C355.385 15.3333 355.611 14.3533 356.065 13.5C356.531 12.6467 357.158 11.9867 357.945 11.52C358.745 11.04 359.631 10.8 360.605 10.8C361.325 10.8 362.031 10.96 362.725 11.28C363.431 11.5867 363.991 12 364.405 12.52V7.2H366.705V22H364.405V20.34C364.031 20.8733 363.511 21.3133 362.845 21.66C362.191 22.0067 361.438 22.18 360.585 22.18C359.625 22.18 358.745 21.94 357.945 21.46C357.158 20.9667 356.531 20.2867 356.065 19.42C355.611 18.54 355.385 17.5467 355.385 16.44ZM364.405 16.48C364.405 15.72 364.245 15.06 363.925 14.5C363.618 13.94 363.211 13.5133 362.705 13.22C362.198 12.9267 361.651 12.78 361.065 12.78C360.478 12.78 359.931 12.9267 359.425 13.22C358.918 13.5 358.505 13.92 358.185 14.48C357.878 15.0267 357.725 15.68 357.725 16.44C357.725 17.2 357.878 17.8667 358.185 18.44C358.505 19.0133 358.918 19.4533 359.425 19.76C359.945 20.0533 360.491 20.2 361.065 20.2C361.651 20.2 362.198 20.0533 362.705 19.76C363.211 19.4667 363.618 19.04 363.925 18.48C364.245 17.9067 364.405 17.24 364.405 16.48ZM374.479 22.18C373.439 22.18 372.499 21.9467 371.659 21.48C370.819 21 370.159 20.3333 369.679 19.48C369.199 18.6133 368.959 17.6133 368.959 16.48C368.959 15.36 369.206 14.3667 369.699 13.5C370.193 12.6333 370.866 11.9667 371.719 11.5C372.573 11.0333 373.526 10.8 374.579 10.8C375.633 10.8 376.586 11.0333 377.439 11.5C378.293 11.9667 378.966 12.6333 379.459 13.5C379.953 14.3667 380.199 15.36 380.199 16.48C380.199 17.6 379.946 18.5933 379.439 19.46C378.933 20.3267 378.239 21 377.359 21.48C376.493 21.9467 375.533 22.18 374.479 22.18ZM374.479 20.2C375.066 20.2 375.613 20.06 376.119 19.78C376.639 19.5 377.059 19.08 377.379 18.52C377.699 17.96 377.859 17.28 377.859 16.48C377.859 15.68 377.706 15.0067 377.399 14.46C377.093 13.9 376.686 13.48 376.179 13.2C375.673 12.92 375.126 12.78 374.539 12.78C373.953 12.78 373.406 12.92 372.899 13.2C372.406 13.48 372.013 13.9 371.719 14.46C371.426 15.0067 371.279 15.68 371.279 16.48C371.279 17.6667 371.579 18.5867 372.179 19.24C372.793 19.88 373.559 20.2 374.479 20.2ZM386.888 16.44C386.888 15.3333 387.115 14.3533 387.568 13.5C388.035 12.6467 388.662 11.9867 389.448 11.52C390.248 11.04 391.128 10.8 392.088 10.8C392.955 10.8 393.708 10.9733 394.348 11.32C395.002 11.6533 395.522 12.0733 395.908 12.58V10.98H398.208V22H395.908V20.36C395.522 20.88 394.995 21.3133 394.328 21.66C393.662 22.0067 392.902 22.18 392.048 22.18C391.102 22.18 390.235 21.94 389.448 21.46C388.662 20.9667 388.035 20.2867 387.568 19.42C387.115 18.54 386.888 17.5467 386.888 16.44ZM395.908 16.48C395.908 15.72 395.748 15.06 395.428 14.5C395.122 13.94 394.715 13.5133 394.208 13.22C393.702 12.9267 393.155 12.78 392.568 12.78C391.982 12.78 391.435 12.9267 390.928 13.22C390.422 13.5 390.008 13.92 389.688 14.48C389.382 15.0267 389.228 15.68 389.228 16.44C389.228 17.2 389.382 17.8667 389.688 18.44C390.008 19.0133 390.422 19.4533 390.928 19.76C391.448 20.0533 391.995 20.2 392.568 20.2C393.155 20.2 393.702 20.0533 394.208 19.76C394.715 19.4667 395.122 19.04 395.428 18.48C395.748 17.9067 395.908 17.24 395.908 16.48ZM406.763 10.8C407.63 10.8 408.403 10.98 409.083 11.34C409.776 11.7 410.316 12.2333 410.703 12.94C411.09 13.6467 411.283 14.5 411.283 15.5V22H409.023V15.84C409.023 14.8533 408.776 14.1 408.283 13.58C407.79 13.0467 407.116 12.78 406.263 12.78C405.41 12.78 404.73 13.0467 404.223 13.58C403.73 14.1 403.483 14.8533 403.483 15.84V22H401.203V10.98H403.483V12.24C403.856 11.7867 404.33 11.4333 404.903 11.18C405.49 10.9267 406.11 10.8 406.763 10.8ZM415.351 9.52C414.938 9.52 414.591 9.38 414.311 9.1C414.031 8.82 413.891 8.47333 413.891 8.06C413.891 7.64667 414.031 7.3 414.311 7.02C414.591 6.74 414.938 6.6 415.351 6.6C415.751 6.6 416.091 6.74 416.371 7.02C416.651 7.3 416.791 7.64667 416.791 8.06C416.791 8.47333 416.651 8.82 416.371 9.1C416.091 9.38 415.751 9.52 415.351 9.52ZM416.471 10.98V22H414.191V10.98H416.471ZM432.805 10.8C433.672 10.8 434.445 10.98 435.125 11.34C435.818 11.7 436.358 12.2333 436.745 12.94C437.145 13.6467 437.345 14.5 437.345 15.5V22H435.085V15.84C435.085 14.8533 434.838 14.1 434.345 13.58C433.852 13.0467 433.178 12.78 432.325 12.78C431.472 12.78 430.792 13.0467 430.285 13.58C429.792 14.1 429.545 14.8533 429.545 15.84V22H427.285V15.84C427.285 14.8533 427.038 14.1 426.545 13.58C426.052 13.0467 425.378 12.78 424.525 12.78C423.672 12.78 422.992 13.0467 422.485 13.58C421.992 14.1 421.745 14.8533 421.745 15.84V22H419.465V10.98H421.745V12.24C422.118 11.7867 422.592 11.4333 423.165 11.18C423.738 10.9267 424.352 10.8 425.005 10.8C425.885 10.8 426.672 10.9867 427.365 11.36C428.058 11.7333 428.592 12.2733 428.965 12.98C429.298 12.3133 429.818 11.7867 430.525 11.4C431.232 11 431.992 10.8 432.805 10.8ZM439.486 16.44C439.486 15.3333 439.713 14.3533 440.166 13.5C440.633 12.6467 441.259 11.9867 442.046 11.52C442.846 11.04 443.726 10.8 444.686 10.8C445.553 10.8 446.306 10.9733 446.946 11.32C447.599 11.6533 448.119 12.0733 448.506 12.58V10.98H450.806V22H448.506V20.36C448.119 20.88 447.593 21.3133 446.926 21.66C446.259 22.0067 445.499 22.18 444.646 22.18C443.699 22.18 442.833 21.94 442.046 21.46C441.259 20.9667 440.633 20.2867 440.166 19.42C439.713 18.54 439.486 17.5467 439.486 16.44ZM448.506 16.48C448.506 15.72 448.346 15.06 448.026 14.5C447.719 13.94 447.313 13.5133 446.806 13.22C446.299 12.9267 445.753 12.78 445.166 12.78C444.579 12.78 444.033 12.9267 443.526 13.22C443.019 13.5 442.606 13.92 442.286 14.48C441.979 15.0267 441.826 15.68 441.826 16.44C441.826 17.2 441.979 17.8667 442.286 18.44C442.606 19.0133 443.019 19.4533 443.526 19.76C444.046 20.0533 444.593 20.2 445.166 20.2C445.753 20.2 446.299 20.0533 446.806 19.76C447.313 19.4667 447.719 19.04 448.026 18.48C448.346 17.9067 448.506 17.24 448.506 16.48ZM456.081 7.2V22H453.801V7.2H456.081Z" fill="#4B5563"/>
</svg>
